<?xml version="1.0" standalone="no"?>
<!DOCTYPE svg PUBLIC "-//W3C//DTD SVG 20010904//EN"
 "http://www.w3.org/TR/2001/REC-SVG-20010904/DTD/svg10.dtd">
<svg version="1.0" xmlns="http://www.w3.org/2000/svg"
 width="226.000000pt" height="226.000000pt" viewBox="0 0 226.000000 226.000000"
 preserveAspectRatio="xMidYMid meet">
<metadata>
Created by potrace 1.14, written by Peter Selinger 2001-2017
</metadata>
<g transform="translate(0.000000,226.000000) scale(0.100000,-0.100000)"
fill="#000000" stroke="none">
<path d="M933 2185 c-107 -20 -231 -60 -309 -101 -118 -61 -125 -65 -162 -103
-20 -20 -39 -36 -42 -36 -13 0 -40 -34 -40 -49 0 -9 -3 -15 -7 -14 -5 1 -24
-13 -43 -31 -19 -19 -29 -31 -23 -27 9 5 11 2 7 -8 -3 -9 -10 -13 -15 -10 -5
3 -10 0 -10 -5 -1 -6 -2 -15 -3 -20 0 -6 -7 -16 -15 -23 -12 -11 -13 -10 -6 2
5 9 4 12 -1 7 -5 -5 -9 -12 -9 -15 0 -4 -11 -22 -24 -41 -14 -19 -18 -31 -10
-26 7 4 2 -5 -12 -21 -15 -16 -24 -35 -21 -43 3 -9 0 -11 -7 -7 -7 5 -16 -5
-23 -26 -6 -18 -11 -34 -10 -35 1 -2 -7 -19 -18 -38 -11 -20 -20 -41 -20 -48
0 -7 -7 -24 -14 -39 -10 -18 -11 -28 -4 -28 6 0 5 -7 -4 -17 -9 -10 -13 -24
-11 -30 3 -7 0 -13 -6 -13 -6 0 -8 -7 -5 -15 4 -8 1 -22 -6 -30 -6 -8 -9 -19
-6 -24 4 -5 2 -12 -4 -16 -6 -4 -7 -12 -1 -23 6 -10 4 -23 -6 -39 -12 -19 -13
-23 -2 -23 9 0 10 -3 3 -8 -15 -10 -16 -204 -1 -214 9 -6 9 -8 0 -8 -7 0 -13
-12 -13 -26 0 -14 4 -22 10 -19 6 3 7 -1 4 -10 -16 -42 62 -230 148 -357 66
-96 182 -213 277 -278 93 -63 252 -135 366 -166 91 -25 116 -28 280 -28 183
-1 243 7 380 51 146 46 360 173 337 199 -4 4 -2 4 4 1 14 -8 47 26 37 38 -5 4
-3 6 2 3 12 -7 37 17 28 26 -4 3 -1 6 5 6 7 0 12 7 12 16 0 8 5 12 10 9 6 -3
13 2 17 12 4 10 17 27 30 38 13 11 23 31 23 43 0 12 3 21 8 20 4 -2 8 0 9 5 2
4 12 17 23 29 11 12 20 26 20 31 0 4 7 15 15 24 8 8 13 19 10 24 -4 5 -1 9 4
9 6 0 11 16 11 35 0 27 3 33 15 29 11 -5 13 -2 9 10 -4 9 -1 16 6 16 7 0 10 8
7 20 -3 11 -2 20 2 20 14 0 40 79 44 133 1 9 5 17 10 17 4 0 5 5 2 10 -4 6 -1
18 7 27 11 14 11 16 -2 9 -9 -4 -8 -1 3 7 20 16 23 32 5 21 -10 -6 -10 -5 -1
7 7 9 11 34 9 57 -2 23 0 42 4 42 4 0 7 25 6 56 0 31 2 61 6 67 4 6 4 16 0 22
-4 5 -8 24 -9 40 -1 17 -5 40 -9 53 -4 14 -2 22 5 22 9 0 8 6 -1 23 -7 12 -11
30 -9 40 1 10 -2 24 -7 30 -5 7 -12 25 -16 41 -12 50 -85 188 -137 257 -60 81
-175 192 -258 248 -79 54 -229 126 -311 151 -165 49 -391 63 -547 35z m311
-649 c86 -24 151 -63 206 -123 70 -76 93 -143 94 -268 1 -170 -46 -273 -163
-352 -97 -67 -137 -76 -363 -81 l-198 -4 0 258 0 259 33 -40 c17 -22 44 -53
59 -70 l27 -30 1 45 c1 40 2 43 14 28 13 -18 28 -24 24 -10 -3 12 14 55 28 70
8 7 11 18 8 24 -4 6 -2 8 4 4 13 -8 42 31 42 56 0 24 12 23 28 -2 7 -12 17
-18 22 -15 6 4 8 10 5 15 -10 17 64 28 99 14 8 -3 54 -55 101 -115 48 -60 89
-109 92 -109 3 0 3 38 1 84 -15 236 -199 383 -422 336 l-58 -12 6 -161 5 -162
-20 25 c-11 14 -38 46 -59 72 -38 44 -40 50 -40 115 0 95 -21 135 -77 147 -95
21 -36 28 200 23 183 -3 256 -8 301 -21z m-434 -416 c0 -104 -4 -190 -8 -190
-4 0 -7 28 -6 63 4 129 -8 288 -23 303 -13 12 -11 14 11 14 l26 0 0 -190z"/>
<path d="M1453 1180 c3 -77 2 -140 -2 -140 -3 0 -12 9 -19 20 -18 30 -32 24
-32 -12 l0 -33 -55 60 c-30 33 -55 57 -56 53 -5 -25 -4 -34 5 -47 8 -11 8 -13
0 -8 -7 4 -14 -5 -18 -24 -3 -17 -9 -28 -13 -26 -5 3 -14 -1 -21 -9 -7 -8 -10
-14 -5 -14 4 0 -2 -7 -13 -16 -10 -8 -14 -13 -7 -10 7 4 5 -6 -5 -26 -14 -29
-17 -31 -22 -13 -4 16 -13 20 -40 20 -54 -2 -60 -4 -60 -20 0 -8 -4 -15 -8
-15 -11 0 -74 67 -111 119 l-31 44 0 -161 0 -161 36 -7 c19 -3 72 -5 117 -2
67 3 92 10 136 33 63 35 112 89 147 163 l25 53 37 -45 c20 -24 40 -42 45 -39
9 5 9 288 0 361 -4 29 -10 42 -21 42 -13 0 -14 -18 -9 -140z"/>
</g>
</svg>
